<?xml version="1.0" encoding="UTF-8"?><svg id="Character" xmlns="http://www.w3.org/2000/svg" viewBox="0 0 417 433.64"><defs><style>.cls-1,.cls-2,.cls-3,.cls-4{stroke-miterlimit:10;}.cls-1,.cls-2,.cls-3,.cls-4,.cls-5{stroke:#263238;}.cls-1,.cls-6,.cls-7{fill:#fff;}.cls-2,.cls-8{fill:#263238;}.cls-3,.cls-9{fill:#92e3a9;}.cls-6{opacity:.3;}.cls-7{opacity:.7;}.cls-10{fill:#828282;}.cls-4,.cls-5{fill:none;}.cls-5{stroke-linecap:round;stroke-linejoin:round;}</style></defs><path class="cls-9" d="m393.38,173.69c-9.95-20.55-21.29-40.95-33.06-60.03-18.23-29.55-42.09-57.25-73.32-74.72C214.55-1.58,131.1,14.28,76.07,60.98c-55.03,46.7-10.09,106.61-20.18,151.54-10.09,44.93-42.19,43.17-50.44,108.37-8.25,65.2,85.29,103.97,157.74,87.23,72.45-16.74,73.37-46.7,134.81-48.46,61.45-1.76,98.13-20.26,110.97-88.99,4.51-24.15,4.99-50.39-4.86-73.46-3.34-7.82-6.93-15.68-10.73-23.52Z"/><path class="cls-7" d="m393.38,173.69c-9.95-20.55-21.29-40.95-33.06-60.03-18.23-29.55-42.09-57.25-73.32-74.72C214.55-1.58,131.1,14.28,76.07,60.98c-55.03,46.7-10.09,106.61-20.18,151.54-10.09,44.93-42.19,43.17-50.44,108.37-8.25,65.2,85.29,103.97,157.74,87.23,72.45-16.74,73.37-46.7,134.81-48.46,61.45-1.76,98.13-20.26,110.97-88.99,4.51-24.15,4.99-50.39-4.86-73.46-3.34-7.82-6.93-15.68-10.73-23.52Z"/><polygon class="cls-9" points="402.14 377.76 402.14 371.53 396.96 368.34 391.52 371.69 386.08 368.34 380.65 371.69 375.21 368.34 369.78 371.69 364.34 368.34 358.9 371.69 353.47 368.34 348.03 371.69 342.59 368.34 337.15 371.69 331.72 368.34 326.28 371.69 320.84 368.34 315.4 371.69 309.97 368.34 304.53 371.69 299.09 368.34 293.66 371.69 288.22 368.34 282.78 371.69 277.34 368.34 271.91 371.69 266.47 368.34 261.03 371.69 255.59 368.34 250.15 371.69 244.71 368.34 239.27 371.69 233.84 368.34 228.4 371.69 222.96 368.34 217.52 371.69 212.08 368.34 206.64 371.69 201.21 368.34 195.77 371.69 190.33 368.34 184.89 371.69 179.45 368.34 174.02 371.69 168.58 368.34 163.14 371.69 157.71 368.34 152.27 371.69 146.83 368.34 141.39 371.69 135.96 368.34 130.52 371.69 125.08 368.34 119.64 371.69 114.2 368.34 108.76 371.69 103.32 368.34 97.88 371.69 92.44 368.34 87 371.69 81.56 368.34 76.12 371.69 70.67 368.34 65.23 371.69 59.79 368.34 54.36 371.69 48.91 368.34 43.47 371.69 38.03 368.34 32.59 371.69 27.14 368.34 22.6 371.13 22.6 377.76 402.14 377.76"/><path class="cls-10" d="m311.77,340.13c1.17.51,4.05.45,4.05.45.03,0-.62-1.88-.67-1.99-.63-1.32-2.62-3.5-4.25-3.28-1.17.16-1.82,1.33-1.55,2.43.27,1.12,1.42,1.96,2.42,2.4Z"/><path class="cls-10" d="m312.76,348.45c1.22.18,3.78-.57,3.99-.63.4,1.44.94,2.88,1.56,4.3.35.82.73,1.63,1.13,2.44-.23-.34-.45-.65-.48-.69-.96-1.11-3.45-2.68-4.96-2.04-1.09.46-1.4,1.76-.86,2.75.56,1.01,1.89,1.51,2.97,1.67,1.1.16,3.29-.43,3.87-.59.15.31.3.62.46.93.74,1.48,1.49,2.95,2.18,4.42.24.52.46,1.03.69,1.55-.21-.3-.39-.56-.42-.59-.96-1.11-3.45-2.68-4.96-2.04-1.09.46-1.4,1.76-.86,2.75.56,1.01,1.89,1.51,2.97,1.67,1.05.15,3.08-.37,3.77-.57.21.54.42,1.07.61,1.6.12.36.25.71.35,1.08.1.37.2.73.3,1.09.17.7.35,1.42.49,2.11.11.48.2.93.29,1.39-.24-.52-.72-1.52-.77-1.6-.78-1.24-3.01-3.17-4.59-2.77-1.14.29-1.65,1.53-1.27,2.59.4,1.09,1.64,1.78,2.68,2.1,1.15.35,3.69.03,4.01-.01.15.76.29,1.5.42,2.2.27,1.55.48,2.94.64,4.11h1.07c-.19-1.22-.43-2.66-.76-4.29-.15-.77-.33-1.6-.52-2.44.19-.08,1.28-.52,2.24-1.05.84.91,2.98,1.97,3.26,2.1-.29.72-.58,1.41-.87,2.07-.59,1.37-1.16,2.58-1.66,3.61h1.16c.43-.95.9-2.03,1.39-3.23.3-.73.61-1.51.91-2.32.31.06,2.83.58,4,.31,1.06-.24,2.35-.84,2.83-1.9.47-1.03.05-2.3-1.07-2.68-1.55-.52-3.92,1.24-4.79,2.42-.05.07-.52.88-.81,1.4.12-.33.25-.65.37-.99.25-.67.48-1.36.72-2.09.11-.36.21-.72.32-1.08.12-.36.19-.75.29-1.13.21-.89.38-1.79.53-2.71.59.22,2.7.95,3.8.87,1.09-.08,2.45-.48,3.09-1.44.62-.95.4-2.27-.65-2.81-1.45-.75-4.06.63-5.1,1.66-.06.06-.72.89-1.08,1.35.09-.55.18-1.1.25-1.67.2-1.62.35-3.27.52-4.92.05-.5.1-1.01.16-1.51.21.08,2.7,1.01,3.93.92,1.09-.08,2.46-.48,3.09-1.44.62-.95.4-2.27-.65-2.81-1.45-.75-4.06.63-5.1,1.66-.08.08-1.03,1.26-1.25,1.58.12-1.11.24-2.21.41-3.29.23-1.49.54-2.94.94-4.32.1.04,2.69,1.02,3.95.93,1.09-.08,2.46-.48,3.09-1.44.62-.95.4-2.27-.65-2.81-1.45-.75-4.06.63-5.1,1.66-.08.08-1.1,1.36-1.27,1.6.02-.08.04-.17.07-.25.45-1.47,1.07-2.84,1.71-4.09.37-.73.77-1.4,1.17-2.05.46.23,2.6,1.27,3.74,1.31,1.09.04,2.49-.2,3.23-1.1.72-.87.64-2.21-.34-2.86-1.36-.91-4.11.18-5.25,1.09-.06.05-.64.62-1.05,1.05.19-.29.37-.59.55-.87.68-1.03,1.38-1.93,1.99-2.73.36-.45.68-.85,1-1.22.57-.01,2.89-.08,3.9-.56.99-.46,2.12-1.33,2.36-2.46.23-1.11-.45-2.26-1.62-2.38-1.63-.18-3.56,2.05-4.16,3.39-.05.12-.65,2.01-.62,2.01,0,0,.03,0,.03,0-.31.35-.63.73-.98,1.15-.64.78-1.35,1.67-2.06,2.69-.71,1.02-1.46,2.14-2.13,3.4-.68,1.26-1.33,2.62-1.82,4.1,0,.02,0,.04-.01.05,0-.48-.01-1.82-.03-1.92-.19-1.45-1.4-4.14-3.01-4.44-1.16-.21-2.14.69-2.23,1.82-.09,1.15.74,2.3,1.56,3.03.92.82,3.47,1.61,3.67,1.68-.45,1.42-.8,2.91-1.08,4.45-.16.88-.29,1.76-.41,2.65,0-.41-.01-.79-.02-.84-.19-1.45-1.4-4.14-3.01-4.44-1.16-.21-2.14.69-2.23,1.82-.09,1.15.74,2.3,1.55,3.03.83.74,2.99,1.46,3.56,1.64-.04.34-.09.68-.13,1.03-.2,1.64-.38,3.28-.62,4.89-.08.57-.18,1.12-.28,1.67,0-.37-.01-.68-.02-.73-.19-1.45-1.4-4.14-3.01-4.44-1.16-.21-2.14.69-2.23,1.82-.09,1.15.74,2.3,1.56,3.03.79.7,2.78,1.39,3.46,1.61-.12.56-.24,1.13-.38,1.67-.1.37-.18.73-.31,1.09-.12.36-.23.72-.35,1.08-.25.68-.5,1.37-.75,2.03-.18.46-.35.89-.53,1.32.09-.56.24-1.66.24-1.76.02-.97-.32-2.55-1.01-3.66,0-.14,0-.29-.03-.43-.18-1.12-1.23-1.95-2.37-1.64-1.58.42-2.58,3.2-2.66,4.66,0,.09.05,1.03.1,1.62-.08-.34-.15-.68-.24-1.03-.17-.7-.35-1.39-.55-2.14-.11-.36-.22-.72-.33-1.08-.1-.36-.25-.73-.38-1.11-.31-.86-.67-1.71-1.05-2.56.61-.15,2.78-.7,3.65-1.37.87-.66,1.78-1.75,1.78-2.91,0-1.13-.92-2.11-2.09-1.98-1.63.18-3.04,2.77-3.34,4.2-.02.09-.11,1.14-.16,1.72-.23-.51-.46-1.02-.71-1.53-.73-1.46-1.51-2.92-2.28-4.38-.24-.45-.47-.9-.7-1.34.22-.05,2.81-.65,3.78-1.4.87-.66,1.78-1.75,1.78-2.91,0-1.13-.92-2.11-2.09-1.98-1.63.18-3.04,2.77-3.34,4.2-.02.11-.16,1.62-.17,2.01-.51-.99-1.01-1.97-1.47-2.97-.63-1.37-1.17-2.75-1.6-4.13.1-.02,2.81-.64,3.81-1.4.87-.66,1.78-1.75,1.78-2.91,0-1.13-.92-2.11-2.09-1.98-1.63.18-3.04,2.77-3.33,4.2-.02.11-.17,1.74-.17,2.04-.03-.08-.06-.16-.08-.25-.44-1.47-.67-2.96-.83-4.36-.09-.81-.13-1.59-.16-2.36.52-.06,2.87-.38,3.84-.97.93-.57,1.97-1.55,2.09-2.69.12-1.13-.68-2.2-1.86-2.2-1.64,0-3.33,2.42-3.78,3.81-.02.08-.19.87-.3,1.45,0-.34-.02-.7-.02-1.03,0-1.24.08-2.37.16-3.37.05-.57.1-1.08.16-1.57.47-.33,2.37-1.66,2.95-2.62.57-.93,1.03-2.28.61-3.35-.42-1.05-1.62-1.64-2.67-1.1-1.45.75-1.84,3.68-1.6,5.12.02.12.57,2.04.6,2.02,0,0,.02-.02.03-.02-.06.46-.13.96-.19,1.5-.1,1-.2,2.14-.23,3.38-.03,1.24-.03,2.59.1,4.01.13,1.43.33,2.92.74,4.43,0,.02.01.03.02.05-.26-.4-1.02-1.51-1.08-1.59-.96-1.11-3.45-2.68-4.96-2.04-1.09.46-1.4,1.76-.86,2.75.56,1.01,1.89,1.51,2.97,1.67Z"/><path class="cls-10" d="m340.83,340.76s.52-1.91.54-2.03c.2-1.45-.26-4.36-1.73-5.08-1.06-.51-2.25.1-2.64,1.17-.4,1.09.11,2.42.7,3.33.7,1.08,3.13,2.61,3.13,2.61Z"/><path class="cls-10" d="m347.62,353.85c.75.33,2.57.28,2.57.28.02,0-.39-1.19-.43-1.27-.4-.84-1.67-2.22-2.69-2.08-.74.1-1.15.84-.99,1.54.17.71.9,1.24,1.54,1.52Z"/><path class="cls-10" d="m348.25,359.13c.77.11,2.4-.36,2.53-.4.26.91.59,1.83.99,2.73.22.52.47,1.03.71,1.55-.15-.22-.28-.41-.3-.44-.61-.7-2.19-1.7-3.15-1.29-.69.29-.89,1.12-.54,1.75.35.64,1.2.96,1.88,1.06.7.1,2.09-.27,2.46-.38.1.2.19.39.29.59.47.94.95,1.87,1.38,2.8.15.33.29.66.44.98-.13-.19-.24-.35-.26-.38-.61-.7-2.19-1.7-3.15-1.29-.69.29-.89,1.12-.54,1.75.35.64,1.2.96,1.88,1.06.66.1,1.96-.24,2.39-.36.13.34.27.68.38,1.02.07.23.16.45.22.69.07.23.13.46.19.69.11.44.22.9.31,1.34.07.3.13.59.18.88-.15-.33-.46-.96-.49-1.01-.49-.79-1.91-2.01-2.92-1.76-.73.18-1.05.97-.8,1.64.25.69,1.04,1.13,1.7,1.33.73.22,2.34.02,2.55,0,.1.48.19.95.26,1.4.17.98.3,1.86.4,2.61h.68c-.12-.77-.27-1.69-.48-2.72-.1-.49-.21-1.01-.33-1.55.12-.05.81-.33,1.42-.67.53.58,1.89,1.25,2.07,1.34-.19.46-.37.9-.55,1.31-.38.87-.73,1.64-1.05,2.29h.74c.27-.6.57-1.29.88-2.05.19-.46.38-.96.58-1.47.2.04,1.79.37,2.54.2.68-.15,1.49-.54,1.8-1.2.3-.65.03-1.46-.68-1.7-.98-.33-2.49.79-3.04,1.53-.03.04-.33.56-.52.89.08-.21.16-.41.23-.63.16-.43.3-.86.46-1.32.07-.23.14-.46.21-.69.07-.23.12-.48.18-.72.13-.56.24-1.14.34-1.72.38.14,1.72.6,2.41.55.69-.05,1.56-.3,1.96-.92.39-.6.25-1.44-.41-1.78-.92-.48-2.58.4-3.24,1.06-.04.04-.46.56-.68.85.06-.35.11-.7.16-1.06.13-1.03.23-2.08.33-3.12.03-.32.07-.64.1-.96.13.05,1.71.64,2.49.58.69-.05,1.56-.3,1.96-.92.39-.6.25-1.44-.41-1.78-.92-.48-2.58.4-3.24,1.06-.05.05-.65.8-.8,1,.07-.7.15-1.4.26-2.09.15-.95.34-1.87.6-2.74.06.02,1.71.65,2.51.59.69-.05,1.56-.3,1.96-.92.39-.6.25-1.44-.41-1.78-.92-.48-2.58.4-3.24,1.06-.05.05-.7.86-.81,1.02.02-.05.03-.11.04-.16.29-.93.68-1.8,1.09-2.6.24-.46.49-.89.74-1.3.3.15,1.65.81,2.37.83.69.03,1.58-.13,2.05-.7.46-.56.41-1.4-.21-1.82-.87-.57-2.61.12-3.33.69-.04.03-.4.4-.67.66.12-.18.24-.38.35-.55.43-.65.87-1.23,1.27-1.73.23-.28.43-.54.63-.77.36,0,1.83-.05,2.48-.35.63-.29,1.34-.84,1.5-1.56.15-.7-.28-1.43-1.03-1.51-1.03-.11-2.26,1.3-2.64,2.15-.03.07-.41,1.28-.39,1.28,0,0,.02,0,.02,0-.2.22-.4.46-.62.73-.4.5-.86,1.06-1.31,1.71-.45.65-.92,1.36-1.35,2.16-.43.8-.85,1.66-1.16,2.61,0,.01,0,.02,0,.03,0-.3,0-1.16-.02-1.22-.12-.92-.89-2.63-1.91-2.82-.74-.14-1.36.44-1.42,1.16-.06.73.47,1.46.99,1.92.58.52,2.2,1.02,2.33,1.06-.29.9-.51,1.85-.68,2.82-.1.56-.18,1.12-.26,1.68,0-.26,0-.5-.01-.53-.12-.92-.89-2.63-1.91-2.82-.74-.14-1.36.44-1.42,1.16-.06.73.47,1.46.99,1.92.52.47,1.9.93,2.26,1.04-.03.22-.06.43-.08.65-.12,1.04-.24,2.08-.39,3.1-.05.36-.12.71-.18,1.06,0-.23,0-.43-.01-.46-.12-.92-.89-2.63-1.91-2.82-.74-.14-1.36.44-1.42,1.16-.06.73.47,1.46.99,1.92.5.45,1.76.88,2.19,1.02-.08.36-.15.72-.24,1.06-.07.23-.11.46-.19.69-.07.23-.15.46-.22.68-.16.43-.31.87-.48,1.29-.11.29-.22.56-.33.84.06-.36.15-1.06.15-1.12.01-.62-.2-1.62-.64-2.32,0-.09,0-.18-.02-.27-.11-.71-.78-1.24-1.5-1.04-1,.27-1.64,2.03-1.69,2.96,0,.05.03.65.06,1.03-.05-.22-.1-.43-.15-.66-.11-.44-.22-.88-.35-1.36-.07-.23-.14-.46-.21-.69-.06-.23-.16-.47-.24-.7-.2-.54-.43-1.08-.67-1.62.39-.09,1.76-.44,2.32-.87.55-.42,1.13-1.11,1.13-1.85,0-.72-.58-1.34-1.33-1.26-1.03.11-1.93,1.76-2.12,2.67-.01.06-.07.72-.1,1.09-.15-.32-.29-.65-.45-.97-.46-.93-.96-1.86-1.45-2.78-.15-.28-.3-.57-.45-.85.14-.03,1.78-.41,2.4-.89.55-.42,1.13-1.11,1.13-1.85,0-.72-.58-1.34-1.33-1.26-1.03.11-1.93,1.76-2.12,2.67-.01.07-.1,1.03-.11,1.27-.33-.63-.64-1.25-.93-1.88-.4-.87-.74-1.75-1.01-2.62.06-.01,1.78-.4,2.42-.89.55-.42,1.13-1.11,1.13-1.85,0-.72-.58-1.34-1.33-1.26-1.03.11-1.93,1.76-2.12,2.67-.01.07-.11,1.1-.11,1.29-.02-.05-.04-.1-.05-.16-.28-.94-.43-1.88-.53-2.77-.06-.52-.08-1.01-.1-1.5.33-.04,1.82-.24,2.44-.61.59-.36,1.25-.98,1.32-1.71.07-.71-.43-1.4-1.18-1.4-1.04,0-2.11,1.54-2.4,2.42-.02.05-.12.55-.19.92,0-.22-.01-.44-.01-.65,0-.79.05-1.5.1-2.14.03-.36.07-.69.1-.99.3-.21,1.5-1.05,1.87-1.66.36-.59.66-1.45.39-2.13-.26-.67-1.03-1.04-1.69-.7-.92.48-1.17,2.34-1.01,3.25.01.08.36,1.29.38,1.28,0,0,.01-.01.02-.01-.04.29-.08.61-.12.95-.06.64-.13,1.36-.15,2.15-.02.79-.02,1.64.06,2.55.08.9.21,1.85.47,2.81,0,.01,0,.02.01.03-.16-.26-.64-.96-.69-1.01-.61-.7-2.19-1.7-3.15-1.29-.69.29-.89,1.12-.54,1.75.35.64,1.2.96,1.88,1.06Z"/><path class="cls-10" d="m366.07,354.25s.33-1.21.34-1.29c.13-.92-.17-2.77-1.1-3.22-.67-.33-1.43.07-1.67.74-.25.69.07,1.53.44,2.12.44.68,1.99,1.65,1.99,1.66Z"/><path class="cls-10" d="m57.28,352.56c.75.33,2.57.28,2.57.28.02,0-.39-1.19-.43-1.27-.4-.84-1.67-2.22-2.69-2.08-.74.1-1.15.84-.99,1.54.17.71.9,1.24,1.54,1.52Z"/><path class="cls-10" d="m57.91,357.85c.77.11,2.4-.36,2.53-.4.26.91.59,1.83.99,2.73.22.52.47,1.03.71,1.55-.15-.22-.28-.41-.3-.44-.61-.7-2.19-1.7-3.15-1.29-.69.29-.89,1.12-.54,1.75.35.64,1.2.96,1.88,1.06.7.1,2.09-.27,2.46-.38.1.2.19.39.29.59.47.94.95,1.87,1.38,2.8.15.33.29.66.44.98-.13-.19-.24-.35-.26-.38-.61-.7-2.19-1.7-3.15-1.29-.69.29-.89,1.12-.54,1.75.35.64,1.2.96,1.88,1.06.66.1,1.96-.24,2.39-.36.13.34.27.68.38,1.02.07.23.16.45.22.69.06.23.13.46.19.69.11.44.22.9.31,1.34.07.3.13.59.18.88-.15-.33-.46-.96-.49-1.01-.49-.79-1.91-2.01-2.92-1.76-.73.18-1.05.97-.8,1.64.25.69,1.04,1.13,1.7,1.33.73.22,2.34.02,2.55,0,.1.48.19.95.26,1.4.17.98.3,1.86.4,2.61h.68c-.12-.77-.27-1.69-.48-2.72-.1-.49-.21-1.01-.33-1.55.12-.05.81-.33,1.42-.67.53.58,1.89,1.25,2.07,1.34-.19.46-.37.9-.55,1.31-.38.87-.73,1.64-1.05,2.29h.74c.27-.6.57-1.29.88-2.05.19-.46.38-.96.58-1.47.2.04,1.79.37,2.54.2.68-.15,1.49-.54,1.8-1.2.3-.65.03-1.46-.68-1.7-.98-.33-2.49.79-3.04,1.53-.03.04-.33.56-.52.89.08-.21.16-.41.23-.63.16-.43.3-.86.46-1.32.07-.23.14-.46.21-.69.07-.23.12-.48.18-.72.13-.56.24-1.14.34-1.72.38.14,1.72.6,2.41.55.69-.05,1.56-.3,1.96-.92.39-.6.25-1.44-.41-1.78-.92-.48-2.58.4-3.24,1.06-.04.04-.46.56-.68.85.06-.35.11-.7.16-1.06.13-1.03.23-2.08.33-3.12.03-.32.07-.64.1-.96.13.05,1.71.64,2.49.58.69-.05,1.56-.3,1.96-.92.39-.6.25-1.44-.41-1.78-.92-.48-2.58.4-3.24,1.06-.05.05-.65.8-.8,1,.07-.7.15-1.4.26-2.09.15-.95.34-1.87.6-2.74.06.02,1.71.65,2.51.59.69-.05,1.56-.3,1.96-.92.39-.6.25-1.44-.41-1.78-.92-.48-2.58.4-3.24,1.06-.05.05-.7.86-.81,1.02.02-.05.03-.11.04-.16.29-.93.68-1.8,1.09-2.6.24-.46.49-.89.74-1.3.3.15,1.65.81,2.37.83.69.03,1.58-.13,2.05-.7.46-.56.41-1.4-.21-1.82-.87-.57-2.61.12-3.33.69-.04.03-.4.4-.67.66.12-.18.24-.38.35-.55.43-.65.87-1.23,1.27-1.73.23-.28.43-.54.63-.77.36,0,1.83-.05,2.48-.35.63-.29,1.34-.84,1.5-1.56.15-.7-.28-1.43-1.03-1.51-1.03-.11-2.26,1.3-2.64,2.15-.03.07-.41,1.28-.39,1.28,0,0,.02,0,.02,0-.2.22-.4.46-.62.73-.4.5-.86,1.06-1.31,1.71-.45.65-.92,1.36-1.35,2.16-.43.8-.85,1.66-1.16,2.61,0,.01,0,.02,0,.03,0-.3,0-1.16-.02-1.22-.12-.92-.89-2.63-1.91-2.82-.74-.14-1.36.44-1.42,1.16-.06.73.47,1.46.99,1.92.58.52,2.2,1.02,2.33,1.06-.29.9-.51,1.85-.68,2.82-.1.56-.18,1.12-.26,1.68,0-.26,0-.5-.01-.53-.12-.92-.89-2.63-1.91-2.82-.74-.14-1.36.44-1.42,1.16-.06.73.47,1.46.99,1.92.52.47,1.89.93,2.26,1.04-.03.22-.06.43-.08.65-.12,1.04-.24,2.08-.39,3.1-.05.36-.12.71-.18,1.06,0-.23,0-.43-.01-.46-.12-.92-.89-2.63-1.91-2.82-.74-.14-1.36.44-1.42,1.16-.06.73.47,1.46.99,1.92.5.45,1.76.88,2.19,1.02-.08.36-.15.72-.24,1.06-.07.23-.11.46-.19.69-.07.23-.15.46-.22.68-.16.43-.31.87-.48,1.29-.11.29-.22.56-.33.84.06-.36.15-1.06.15-1.12.01-.62-.2-1.62-.64-2.32,0-.09,0-.18-.02-.27-.11-.71-.78-1.24-1.5-1.04-1,.27-1.64,2.03-1.69,2.96,0,.05.03.65.06,1.03-.05-.22-.1-.43-.15-.66-.11-.44-.22-.88-.35-1.36-.07-.23-.14-.46-.21-.69-.06-.23-.16-.47-.24-.7-.2-.54-.43-1.08-.67-1.62.39-.09,1.76-.44,2.32-.87.55-.42,1.13-1.11,1.13-1.85,0-.72-.58-1.34-1.33-1.26-1.03.11-1.93,1.76-2.12,2.67-.01.06-.07.72-.1,1.09-.15-.32-.29-.65-.45-.97-.46-.93-.96-1.86-1.45-2.78-.15-.28-.3-.57-.45-.85.14-.03,1.78-.41,2.4-.89.55-.42,1.13-1.11,1.13-1.85,0-.72-.58-1.34-1.33-1.26-1.03.11-1.93,1.76-2.12,2.67-.01.07-.1,1.03-.11,1.27-.33-.63-.64-1.25-.93-1.88-.4-.87-.74-1.75-1.01-2.62.06-.01,1.78-.41,2.42-.89.55-.42,1.13-1.11,1.13-1.85,0-.72-.58-1.34-1.33-1.26-1.03.11-1.93,1.76-2.12,2.67-.01.07-.11,1.1-.11,1.29-.02-.05-.04-.1-.05-.16-.28-.94-.43-1.88-.53-2.77-.06-.52-.08-1.01-.1-1.5.33-.04,1.82-.24,2.44-.61.59-.36,1.25-.98,1.32-1.71.07-.71-.43-1.4-1.18-1.4-1.04,0-2.11,1.54-2.4,2.42-.02.05-.12.55-.19.92,0-.22-.01-.44-.01-.65,0-.79.05-1.5.1-2.14.03-.36.07-.69.1-.99.3-.21,1.5-1.06,1.87-1.66.36-.59.66-1.45.39-2.13-.26-.67-1.03-1.04-1.69-.7-.92.48-1.17,2.33-1.01,3.25.01.08.36,1.29.38,1.28,0,0,.01-.01.02-.01-.04.29-.08.61-.12.95-.06.64-.13,1.36-.15,2.15-.02.79-.02,1.64.06,2.55.08.9.21,1.85.47,2.81,0,.01,0,.02.01.03-.16-.26-.64-.96-.69-1.01-.61-.7-2.19-1.7-3.15-1.29-.69.29-.89,1.12-.54,1.75.35.64,1.2.96,1.88,1.06Z"/><path class="cls-10" d="m75.72,352.97s.33-1.21.34-1.29c.13-.92-.17-2.77-1.1-3.22-.67-.33-1.43.07-1.67.74-.25.69.07,1.53.44,2.12.44.68,1.99,1.65,1.99,1.66Z"/><path class="cls-5" d="m89.85,112.94c-1.65-1.71-4.51-3.29-9.48-3.41-11.16-.27-8.17,7.62-11.16,9.53-2.99,1.91-3.81-1.09-6.81.82-2.99,1.91-1.63,5.72-4.08,6.26-2.45.54-5.72-2.45-8.71-.54-2.99,1.91-2.99,3.54-4.36,3.54s-4.08-1.09-5.72,0c-1.63,1.09-3.54,2.45-3.54,2.45h29.23"/><path class="cls-5" d="m92.92,117.81c-.27-.13-.55-.26-.85-.39,0,0-.09-1.31-1-2.87"/><path class="cls-5" d="m68.97,131.58h35.9s.82-2.45-2.18-4.08c-2.99-1.63-4.36-.27-5.44-1.63-.97-1.21,2.16-4.15-2.91-7.28"/><path class="cls-5" d="m336.42,277.47c-1.65-1.71-4.51-3.29-9.48-3.41-11.16-.27-8.17,7.62-11.16,9.53-2.99,1.91-3.81-1.09-6.81.82-2.99,1.91-1.63,5.72-4.08,6.26-2.45.54-5.72-2.45-8.71-.54-2.99,1.91-2.99,3.54-4.36,3.54s-4.08-1.09-5.72,0c-1.63,1.09-3.54,2.45-3.54,2.45h29.23"/><path class="cls-5" d="m339.49,282.34c-.27-.13-.55-.26-.85-.39,0,0-.09-1.31-1-2.87"/><path class="cls-5" d="m315.54,296.11h35.9s.82-2.45-2.18-4.08c-2.99-1.63-4.36-.27-5.44-1.63-.97-1.21,2.16-4.15-2.91-7.28"/><path class="cls-5" d="m146.75,63.29h38.22s1.3-3.91-3.47-6.51c-4.78-2.6-6.95-.43-8.68-2.6-1.74-2.17,4.78-7.81-8.25-13.46,0,0-.87-12.15-18.67-12.59-7.68-.19-11.16,2.05-13.01,4.9"/><line class="cls-5" x1="135.09" y1="63.29" x2="141.45" y2="63.29"/><path class="cls-5" d="m130.57,39.03c-.54,1.85-1.13,3.45-2.47,4.3-4.78,3.04-6.08-1.74-10.85,1.3-4.78,3.04-2.6,9.12-6.51,9.98-3.91.87-9.12-3.91-13.89-.87-4.77,3.04-4.77,5.64-6.95,5.64s-6.51-1.74-9.12,0c-2.6,1.74-5.64,3.91-5.64,3.91h48.81"/><path class="cls-9" d="m24.31,263.84s28.65,2.83,43.18,20.6c0,0,15.34-20.58,42.9-20.16,8-9.64,12.81-22.02,12.81-35.52.01-30.76-24.92-55.7-55.68-55.71-30.76-.01-55.7,24.92-55.72,55.68,0,13.33,4.68,25.57,12.49,35.16v-.05Z"/><path class="cls-9" d="m24.31,263.84s28.65,2.83,43.18,20.6c0,0,15.34-20.58,42.9-20.16,8-9.64,12.81-22.02,12.81-35.52.01-30.76-24.92-55.7-55.68-55.71-30.76-.01-55.7,24.92-55.72,55.68,0,13.33,4.68,25.57,12.49,35.16v-.05Z"/><path class="cls-6" d="m24.31,263.84s28.65,2.83,43.18,20.6c0,0,15.34-20.58,42.9-20.16,8-9.64,12.81-22.02,12.81-35.52.01-30.76-24.92-55.7-55.68-55.71-30.76-.01-55.7,24.92-55.72,55.68,0,13.33,4.68,25.57,12.49,35.16v-.05Z"/><polygon class="cls-10" points="69.22 378.15 66.54 176.97 65.87 378.15 69.22 378.15"/><path class="cls-10" d="m67.99,279.02s9.67-17.41,27.08-22.73c0,0-18.38,4.35-27.57,19.35l.48,3.39Z"/><path class="cls-10" d="m66.94,230.16s10.73-17.88,28.14-23.2c0,0-18.95,5.45-28.14,20.45v2.76Z"/><path class="cls-10" d="m67.32,255.6s10.35-18.65,27.76-23.97c0,0-18.82,5.22-28.01,20.21l.25,3.76Z"/><path class="cls-10" d="m66.56,242.27s-9.33-17.41-26.13-22.73c0,0,17.73,4.35,26.6,19.35l-.47,3.39Z"/><path class="cls-10" d="m66.56,266.45s-9.33-17.41-26.13-22.73c0,0,17.73,4.35,26.6,19.35l-.47,3.39Z"/><path class="cls-9" d="m303.61,263.84s28.65,2.83,43.18,20.6c0,0,15.34-20.58,42.9-20.16,8-9.64,12.81-22.02,12.81-35.52.01-30.76-24.92-55.7-55.68-55.71-30.76-.01-55.7,24.92-55.72,55.68,0,13.33,4.68,25.57,12.49,35.16v-.05Z"/><path class="cls-6" d="m303.61,263.84s28.65,2.83,43.18,20.6c0,0,15.34-20.58,42.9-20.16,8-9.64,12.81-22.02,12.81-35.52.01-30.76-24.92-55.7-55.68-55.71-30.76-.01-55.7,24.92-55.72,55.68,0,13.33,4.68,25.57,12.49,35.16v-.05Z"/><polygon class="cls-10" points="348.51 378.15 345.84 176.97 345.17 378.15 348.51 378.15"/><path class="cls-10" d="m347.29,279.02s9.67-17.41,27.08-22.73c0,0-18.38,4.35-27.57,19.35l.48,3.39Z"/><path class="cls-10" d="m346.23,230.16s10.73-17.88,28.14-23.2c0,0-18.95,5.45-28.14,20.45v2.76Z"/><path class="cls-10" d="m346.61,255.6s10.35-18.65,27.76-23.97c0,0-18.82,5.22-28.01,20.21l.25,3.76Z"/><path class="cls-10" d="m345.85,242.27s-9.33-17.41-26.13-22.73c0,0,17.73,4.35,26.6,19.35l-.47,3.39Z"/><path class="cls-10" d="m345.85,266.45s-9.33-17.41-26.13-22.73c0,0,17.73,4.35,26.6,19.35l-.47,3.39Z"/><path class="cls-9" d="m204.2,164.14s48.67,4.82,73.34,34.99c0,0,26.06-34.95,72.87-34.24,13.58-16.37,21.76-37.4,21.76-60.34.02-52.25-42.32-94.62-94.57-94.64-52.25-.02-94.62,42.32-94.64,94.57,0,22.65,7.95,43.44,21.22,59.73v-.08Z"/><path class="cls-6" d="m204.2,164.14s48.67,4.82,73.34,34.99c0,0,26.06-34.95,72.87-34.24,13.58-16.37,21.76-37.4,21.76-60.34.02-52.25-42.32-94.62-94.57-94.64-52.25-.02-94.62,42.32-94.64,94.57,0,22.65,7.95,43.44,21.22,59.73v-.08Z"/><polygon class="cls-10" points="280.74 378.15 275.93 16.58 274.72 378.15 280.74 378.15"/><path class="cls-10" d="m278.39,189.93s16.43-29.58,46.01-38.61c0,0-31.22,7.39-46.83,32.86l.82,5.75Z"/><path class="cls-10" d="m276.6,106.93s18.22-30.38,47.8-39.41c0,0-32.19,9.26-47.8,34.73v4.68Z"/><path class="cls-10" d="m277.24,150.13s17.58-31.68,47.16-40.72c0,0-31.98,8.87-47.58,34.33l.43,6.38Z"/><path class="cls-10" d="m275.96,127.49s-15.85-29.58-44.39-38.61c0,0,30.12,7.39,45.18,32.86l-.79,5.75Z"/><path class="cls-10" d="m275.96,168.57s-15.85-29.58-44.39-38.61c0,0,30.12,7.39,45.18,32.86l-.79,5.75Z"/><line class="cls-5" x1="393.38" y1="377.9" x2="402.61" y2="377.9"/><line class="cls-5" x1="22.96" y1="377.9" x2="384.92" y2="377.9"/><ellipse class="cls-8" cx="205.08" cy="408.06" rx="21.92" ry="1.97"/><path class="cls-4" d="m124.02,245.56s-4.69,2.11-3.52,9.62c1.17,7.5,36.35,56.28,45.26,89.12,8.91,32.83,1.88,60.04,39.16,56.99,37.29-3.05,42.21-45.03,50.42-78.09,8.21-33.07,28.61-54.17,29.78-69.18,1.17-15.01-8.44-12.43-8.44-12.43"/><path class="cls-1" d="m174.79,289.69s3.35,22.09,3.51,23.26c.17,1.17-3.35,13.89-1,20.91s5.86,17.9,7.36,21.08c1.51,3.18,1.67,3.51,1.84,8.53.17,5.02-1.17,15.23.67,18.57,1.84,3.35,5.52,5.19,9.2,4.52,3.68-.67,5.52-3.35,5.02-7.53-.5-4.18-2.18-9.7-3.18-14.39-1-4.68-2.01-8.53-2.68-11.38-.67-2.84-.5-1-.67-11.88-.17-10.88-.84-16.06-1.34-21.42-.5-5.35-.33-6.19-.5-7.7-.17-1.51,6.02-22.42,6.02-22.42l-24.43-1.84.17,1.67Z"/><path class="cls-2" d="m198.21,364.64c-1-4.68-2.01-8.53-2.68-11.38-.67-2.84-.5-1-.67-11.88-.17-10.88-.84-16.06-1.34-21.42,0,0-2.31,24.43-7.04,43.01,0,.16.01.32.02.49.17,5.02-1.17,15.23.67,18.57,1.84,3.35,5.52,5.19,9.2,4.52,3.68-.67,5.52-3.35,5.02-7.53s-2.18-9.7-3.18-14.39Z"/><path class="cls-1" d="m201.39,379.03c-.5-4.18-2.18-9.7-3.18-14.39-1-4.68-2.01-8.53-2.68-11.38,0,0,.84,3.18-3.01,5.52-2.56,1.56-4.67,1.04-6.39-.02.21,1.06.29,2.38.37,4.7.17,5.02-1.17,15.23.67,18.57,1.84,3.35,5.52,5.19,9.2,4.52,3.68-.67,5.52-3.35,5.02-7.53Z"/><path class="cls-1" d="m196.37,386.56c3.68-.67,5.52-3.35,5.02-7.53-.04-.34-.1-.7-.16-1.05-.94,4.67-3.55,7.47-8.04,6.74-3.58-.58-5.89-5.07-6.97-7.79.08,2.16.34,4.01.95,5.11,1.84,3.35,5.52,5.19,9.2,4.52Z"/><path class="cls-2" d="m211.26,316.96s.33,5.86,1.51,8.2c1.17,2.34,3.68,2.68,5.19,5.69s2.01,3.85.17,10.21c-.98,3.37-2.86,9.02.16,11.89,4.67,4.43,8.62-1.73,10.24-5.7,1.53-3.73,1.6-7.59,1.14-11.55-.67-5.86-.67-6.36-.67-7.36s4.02-6.69,1.84-12.38c-2.18-5.69-6.02-5.19-6.02-5.19,0,0-11.71-2.18-13.55,6.19Z"/><path class="cls-1" d="m206.57,291.53s1.17,21.75,3.51,26.1c2.34,4.35,10.04,6.53,12.88,4.68,2.84-1.84,5.02-11.38,5.86-16.9.84-5.52,1.84-13.05,1.84-13.05l-24.09-.84Z"/><path class="cls-2" d="m176.12,230.8s-5.02,20.91-5.35,29.28c-.33,8.37-2.01,22.09-2.68,25.6-.67,3.51-.5,6.53-.5,6.53,0,0,3.18-1.17,15.23.5,12.05,1.67,13.22,2.01,15.39,2.01h2.18l2.17-2.01-.33,2.01s-3.51,1.67,8.2.33c11.71-1.34,15.39-.5,19.07-.67,3.68-.17,6.53-.5,6.53-.5,0,0,1.34-11.04-1.67-25.93-3.01-14.89-2.84-23.42-5.86-28.94l-3.01-5.52s-23.26,1.17-31.79,1-16.4-3.18-16.4-3.18"/><path class="cls-1" d="m135.03,229.79l-3.77,3.25s-5.65,2.05-6.68,3.77c-1.03,1.71-1.88,5.31-2.74,5.65-.86.34-3.08.51-2.23,1.54.86,1.03,2.57.69,2.57.69,0,0,.68,3.42,1.2,4.11.51.68,2.4-.68,5.82-2.05,3.42-1.37,3.94-.86,4.62-3.25.68-2.4,1.88-6.68,1.88-6.68l2.4-2.23-3.08-4.79Z"/><path class="cls-3" d="m135.03,229.79l-2.71,2.34,3.37,4.77c.02-.05.03-.09.03-.09l2.4-2.23-3.08-4.79Z"/><path class="cls-4" d="m122.19,244.68l7.7-3.85c.49-.25,1.09-.07,1.36.41.48.85,1.17,2.19,1.38,3.27"/><path class="cls-2" d="m131.24,240.49l1.25-.63c.81-.41,1.8-.02,2.12.83l.11.29c.31.83-.14,1.76-1,2.01l-.91.27-1.57-2.77Z"/><path class="cls-4" d="m129.89,240.83s.98-.52.98-2.46"/><path class="cls-1" d="m266.23,228.38l4.26,2.58s5.91,1.08,7.21,2.6c1.3,1.52,2.74,4.92,3.64,5.11.9.19,3.12,0,2.45,1.15-.67,1.16-2.42,1.1-2.42,1.1,0,0-.1,3.49-.5,4.25-.39.76-2.48-.28-6.08-1.06-3.6-.78-4.03-.19-5.1-2.44-1.07-2.25-2.97-6.27-2.97-6.27l-2.73-1.8,2.24-5.24Z"/><path class="cls-3" d="m266.23,228.38l3.06,1.86-2.53,5.27c-.02-.05-.04-.09-.04-.09l-2.73-1.8,2.24-5.24Z"/><path class="cls-4" d="m281.38,240.93l-8.23-2.51c-.53-.16-1.09.12-1.28.63-.33.92-.78,2.36-.82,3.45"/><path class="cls-2" d="m271.75,238.31l-1.34-.41c-.87-.26-1.77.28-1.95,1.17l-.06.3c-.17.87.43,1.71,1.32,1.82l.95.11,1.09-2.99Z"/><path class="cls-4" d="m273.14,238.42s-1.06-.35-1.38-2.27"/><path class="cls-3" d="m184.64,164.57s-16.73,4.61-17.41,8.37c-.68,3.77-5.31,16.09-5.31,16.95s-5.65,20.38-5.65,20.38c0,0-2.23,1.71-2.4,2.4,0,0-8.39,4.79-11.64,8.39-3.25,3.6-8.73,6.51-8.39,7.7.34,1.2,2.05,8.22,7.53,8.05,5.48-.17,22.43-8.56,25.85-11.99,3.42-3.42,8.39-14.04,8.39-14.04,0,0-3.42,11.13-2.57,13.7.86,2.57,1.71,7.19,4.45,8.39,2.74,1.2,11.47,4.28,27.22,3.94,15.75-.34,20.03-.86,22.26-4.11,2.23-3.25,3.42-6.85,3.94-10.96.51-4.11.51-5.65.51-7.19s3.77,6.85,13.01,12.5c9.25,5.65,14.9,11.13,16.61,9.25,1.71-1.88,7.7-4.62,6.68-9.59-1.03-4.97-4.79-5.82-9.42-10.44-4.62-4.62-6.68-9.42-6.68-9.42,0,0,.51-2.4-.51-3.6l-1.03-1.2s3.42-6.85-1.03-13.7c-4.45-6.85-5.99-8.9-9.76-13.53-3.77-4.62-2.91-5.82-6.68-8.05-3.77-2.23-2.23-2.05-10.79-3.77-8.56-1.71-10.82-.31-22.02-.41-11.2-.1-15.18,1.97-15.18,1.97Z"/><path class="cls-4" d="m231.43,214.55s1.54-10.27,2.57-18.83c1.03-8.56-1.37-15.41-2.91-17.98"/><path class="cls-4" d="m175.27,181.5s-1.88,6.16-.34,11.3c1.54,5.14,1.54,7.71,1.37,10.44-.17,2.74-.68,7.53-.68,7.53"/><path class="cls-4" d="m177.32,220.37c.51-.34,10.27-13.7,10.27-13.7l1.71,1.2-10.79,14.21"/><polyline class="cls-4" points="215.34 208.9 224.92 225.51 226.81 224.14 217.39 208.21"/><path class="cls-4" d="m189.82,235.61s-.68-1.2-6.16-6.68"/><path class="cls-4" d="m204.72,236.81s6.16-2.74,7.53-5.99"/><path class="cls-4" d="m210.37,236.12s2.05-.17,3.42-2.23"/><path class="cls-3" d="m191.82,148.64s-5.8,1.39-6.14,2.9c-.35,1.51-.23,2.67-.35,3.13-.12.46-2.9,2.09-3.83,3.71-.93,1.62.58,1.97.58,2.43s-2.09,1.97-1.51,2.78c.58.81,1.28,2.2,4.06,2.32,2.78.12,14.84-.58,15.3-.46.46.12,8.35-1.74,14.14-1.51,5.8.23,11.01,2.09,11.36.58.35-1.51-2.55-5.33-2.55-5.33,0,0,2.09-.46.58-3.13-1.51-2.67-3.25-3.01-3.25-3.59s1.85-1.39-2.55-2.9c-4.4-1.51-8.58-1.74-10.9-1.85-2.32-.12-12.4-.35-12.4-.35l-2.55,1.28Z"/><path class="cls-4" d="m220.22,152.47s-5.67,2.75-9.23,5.67c-3.56,2.91-5.02,5.18-7.77,5.83"/><path class="cls-4" d="m222.89,159.19s-2.51-.73-7.53,1.21c-5.02,1.94-4.05,2.59-8.1,3.08"/><path class="cls-4" d="m185.33,154.67s1.86.87,6.07,5.41c4.21,4.53,6.64,3.89,6.64,3.89"/><path class="cls-4" d="m182.09,160.81c.89.24,2.51,2.99,8.02,3.64"/><path class="cls-1" d="m193.1,148.8s-.58,4.06,1.28,7.42c1.85,3.36,3.71,6.72,5.45,6.38,1.74-.35,8-6.95,9.27-8.69,1.27-1.74,2.2-5.22,2.2-5.22,0,0-10.66,5.22-18.2.12Z"/><path class="cls-2" d="m211.3,148.69s-10.66,5.22-18.2.12c0,0-.15,1.08-.05,2.57,1.67,2.69,5.03,6.63,9.89,8.99,2.42-2.19,5.33-5.34,6.15-6.47,1.28-1.74,2.2-5.22,2.2-5.22Z"/><path class="cls-1" d="m189.75,135.17s-2.58-2.27-3.24-.26c-.66,2.01-.39,4.05,1.22,5.82,1.6,1.77,2.62,2.04,2.62,2.04l-.59-7.6Z"/><path class="cls-1" d="m214.54,137.68s2.9-1.85,3.25.23c.35,2.09-.23,4.06-2.09,5.56-1.85,1.51-2.9,1.62-2.9,1.62l1.74-7.42Z"/><path class="cls-1" d="m200.75,114.26s-7.53-1.74-9.04,4.29c-1.51,6.03-2.9,15.3-2.78,19.59s2.32,10.55,3.48,11.82c1.16,1.27,4.52,4.64,6.95,4.75,2.43.12,8.23-1.39,10.9-4.06,2.67-2.67,2.2-5.22,3.59-9.5,1.39-4.29,3.48-10.43,2.2-16.58-1.28-6.14-.35-4.64-5.22-8.46-4.87-3.83-11.48-6.26-10.08-1.85Z"/><path class="cls-2" d="m216.05,124.58c-1.28-6.14-.35-4.64-5.22-8.46-4.87-3.83-11.48-6.26-10.08-1.85,0,0-7.53-1.74-9.04,4.29-.94,3.75-1.83,8.75-2.34,13.03l.26-.05s1.51-.23,1.74-3.25c.23-3.01.35-7.19,1.62-7.3,1.28-.12,3.59,3.13,7.42,1.85,3.83-1.28,5.91-3.48,9.16-2.09,3.25,1.39,4.4,4.06,3.59,5.22-.81,1.16-1.51,2.9-.7,4.29.81,1.39,1.51,2.55,1.74,3.59.17.78.28,3.75.33,5.21,1.28-4.08,2.61-9.28,1.53-14.48Z"/><polyline class="cls-4" points="199.13 132.34 199.7 134.2 198.89 136.28"/><path class="cls-4" d="m198.78,139.65c0,.35,1.85,2.09,4.64.7"/><circle class="cls-8" cx="200.75" cy="145.44" r="1.04"/><path class="cls-8" d="m196.34,134.55c0,.51-.31.93-.7.93s-.7-.42-.7-.93.31-.93.7-.93.7.42.7.93Z"/><path class="cls-8" d="m207.59,134.89c0,.51-.31.93-.7.93s-.7-.42-.7-.93.31-.93.7-.93.7.42.7.93Z"/><path class="cls-4" d="m193.1,130.95s2.43-.93,5.1.7"/><path class="cls-1" d="m204.81,132.34s3.01-1.62,6.49.12"/></svg>